<svg id="visual" viewBox="0 0 900 600" width="900" height="600" xmlns="http://www.w3.org/2000/svg" xmlns:xlink="http://www.w3.org/1999/xlink" version="1.1"><rect x="0" y="0" width="900" height="600" fill="#202731"></rect><defs><linearGradient id="grad1_0" x1="33.3%" y1="0%" x2="100%" y2="100%"><stop offset="20%" stop-color="#202731" stop-opacity="1"></stop><stop offset="80%" stop-color="#202731" stop-opacity="1"></stop></linearGradient></defs><defs><linearGradient id="grad2_0" x1="0%" y1="0%" x2="66.7%" y2="100%"><stop offset="20%" stop-color="#202731" stop-opacity="1"></stop><stop offset="80%" stop-color="#202731" stop-opacity="1"></stop></linearGradient></defs><g transform="translate(900, 0)"><path d="M0 486.7C-64.8 481.8 -129.6 476.9 -186.3 449.7C-243 422.4 -291.5 372.9 -320.3 320.3C-349.1 267.8 -358.1 212.3 -382.5 158.4C-406.9 104.6 -446.8 52.3 -486.7 0L0 0Z" fill="#ef4444"></path></g><g transform="translate(0, 600)"><path d="M0 -486.7C48.9 -445.5 97.9 -404.3 160.3 -387.1C222.8 -369.9 298.8 -376.9 344.2 -344.2C389.6 -311.5 404.5 -239.2 423.1 -175.3C441.8 -111.3 464.3 -55.7 486.7 0L0 0Z" fill="#ef4444"></path></g></svg>